<svg xmlns="http://www.w3.org/2000/svg" width="1600" height="1280" viewBox="0 0 1600 1280" style="background:#fff">
  <g fill="#000000" fill-rule="evenodd">
    <path fill-rule="nonzero" d="M962 620L962 471.937132 958 465.008928 958 620 962 620zM840 642L839.171573 642 762 564.828427 762 642 660 642 660 638 758 638 758 555.171573 840 637.171573 840 642zM873.124356 318L838 318 838 395.171573 760.828427 318 638 318 638 460 642 460 642 322 759.171573 322 842 404.828427 842 322 875.433757 322 873.124356 318 873.124356 318zM371.306566 608.693434C338.371044 575.757912 318 530.257912 318 480 318 379.484176 399.484176 298 500 298 548.924863 298 594.783389 317.396521 628.693434 351.306566L630.107648 352.720779 580 402.828427 580 397.171573 624.442967 352.728606C591.421611 320.432022 547.172584 302 500 302 401.693315 302 322 381.693315 322 480 322 529.153343 341.923329 573.653343 374.134993 605.865007L371.306566 608.693434 371.306566 608.693434zM470 659.539198L470 655.48265C479.752855 657.137979 489.77576 658 500 658 520.459801 658 540.44513 654.548062 559.333508 647.871978L562 646.929508 562 658 638 658 638 482 495.171573 482 499.171573 478 642 478 642 662 558 662 558 652.562467C539.474573 658.786795 519.955527 662 500 662 489.781435 662 479.759563 661.15786 470 659.539198z"/>
    <polygon fill-rule="nonzero" points="940 318 896.536 318 1084.752 644 1272.968 318 1080 318 1080 322 1266.04 322 1084.752 636 903.464 322 940 322"/>
    <path fill-rule="nonzero" d="M1250.74852 829.856921L1250.74852 932.351944 1146.34946 932.351944 1146.34946 867.686314 1121.41726 867.686314 1121.41726 932.351944 1017.0182 932.351944 1017.0182 904.199559C1018.32378 902.53801 1019.59354 900.846968 1020.82628 899.127599L1020.82628 928.543857 1117.60918 928.543857 1117.60918 863.878227 1150.15754 863.878227 1150.15754 928.543857 1246.94044 928.543857 1246.94044 829.856921 1250.74852 829.856921zM1250.74852 729.265941L1250.74852 698.621617 1146.34946 698.621617 1146.34946 763.287247 1121.41726 763.287247 1121.41726 698.621617 1017.0182 698.621617 1017.0182 726.774002C1018.32378 728.435551 1019.59354 730.126593 1020.82628 731.845963L1020.82628 702.429705 1117.60918 702.429705 1117.60918 767.095334 1150.15754 767.095334 1150.15754 702.429705 1246.94044 702.429705 1246.94044 729.265941 1250.74852 729.265941zM947.07154 796.209975L1020.00063 754.104346 1019.10495 752.471158C996.221879 710.746028 952.421405 684.251477 903.96112 684.251477 854.454607 684.251477 811.350643 711.664049 788.999996 752.138426L789 760.449018C809.537931 717.62761 853.296532 688.059565 903.96112 688.059565 950.384252 688.059565 992.400504 713.097259 1014.85865 752.675867L947.07154 791.812775 947.07154 796.209975zM803.37014 899.777759C827.443787 928.476391 863.571698 946.722084 903.96112 946.722084 950.282862 946.722084 992.431346 922.525768 1016.09957 883.696701L1017.11447 882.031703 989.463453 866.067383 989.463453 870.464583 1011.82024 883.372282C988.657073 920.108369 948.27804 942.913997 903.96112 942.913997 863.075455 942.913997 826.687163 923.658456 803.37014 893.721272L803.37014 899.777759zM385.199067 932.351944L355.991757 932.351944 355.991757 788.650544 327.251477 788.650544 327.251477 698.621617 544.707621 698.621617 544.707621 702.429705 331.059565 702.429705 331.059565 784.842457 359.799844 784.842457 359.799844 928.543857 385.199067 928.543857 385.199067 932.351944zM528.900467 932.351944L528.900467 916.07776 528.433437 916.07776 528.433437 784.842457 544.707621 784.842457 544.707621 788.650544 532.241524 788.650544 532.241524 932.351944 528.900467 932.351944zM557.173717 801.116641L557.173717 698.621617 776.533904 698.621617 776.533904 788.650544 705.653188 788.650544 705.653188 784.842457 772.725816 784.842457 772.725816 702.429705 560.981804 702.429705 560.981804 801.116641 557.173717 801.116641zM557.173717 901.707621L557.173717 932.351944 790.904044 932.351944 790.904044 842.323017 705.653188 842.323017 705.653188 846.131104 787.095956 846.131104 787.095956 928.543857 560.981804 928.543857 560.981804 901.707621 557.173717 901.707621z"/>
    <path d="M369.525391,991.222656 L378.871094,991.222656 L378.871094,991.969727 C378.871094,993.668954 378.6709,995.172845 378.270508,996.481445 C377.879881,997.692389 377.220708,998.82519 376.292969,999.879883 C374.193349,1002.24318 371.522477,1003.4248 368.280273,1003.4248 C365.116195,1003.4248 362.406261,1002.28224 360.150391,999.99707 C357.89452,997.702137 356.766602,994.948258 356.766602,991.735352 C356.766602,988.454085 357.914051,985.67091 360.208984,983.385742 C362.503918,981.090809 365.296859,979.943359 368.587891,979.943359 C370.355478,979.943359 372.005852,980.304684 373.539062,981.027344 C375.003914,981.750004 376.444329,982.921867 377.860352,984.542969 L375.428711,986.87207 C373.573233,984.401355 371.312513,983.166016 368.646484,983.166016 C366.253894,983.166016 364.247078,983.991203 362.625977,985.641602 C361.004875,987.262703 360.194336,989.293933 360.194336,991.735352 C360.194336,994.254895 361.097647,996.33007 362.904297,997.960938 C364.593758,999.474617 366.424795,1000.23145 368.397461,1000.23145 C370.077157,1000.23145 371.585931,999.665045 372.923828,998.532227 C374.261725,997.389643 375.008788,996.022469 375.165039,994.430664 L369.525391,994.430664 L369.525391,991.222656 Z M410.423828,997.506836 L400.741211,997.506836 L398.22168,1003 L394.544922,1003 L405.736328,978.961914 L416.532227,1003 L412.796875,1003 L410.423828,997.506836 Z M409.032227,994.298828 L405.677734,986.608398 L402.162109,994.298828 L409.032227,994.298828 Z M437.772461,980.382812 L437.772461,1003 L434.359375,1003 L434.359375,980.382812 L437.772461,980.382812 Z M458.207031,1003 L458.207031,978.844727 L474.701172,996.100586 L474.701172,980.382812 L478.114258,980.382812 L478.114258,1004.37695 L461.620117,987.165039 L461.620117,1003 L458.207031,1003 Z M511.014648,983.59082 L501.947266,983.59082 L501.947266,989.025391 L510.750977,989.025391 L510.750977,992.233398 L501.947266,992.233398 L501.947266,999.791992 L511.014648,999.791992 L511.014648,1003 L498.53418,1003 L498.53418,980.382812 L511.014648,980.382812 L511.014648,983.59082 Z M543.285156,983.751953 L540.516602,985.392578 C539.999021,984.494136 539.505862,983.908204 539.037109,983.634766 C538.548826,983.322264 537.918949,983.166016 537.147461,983.166016 C536.200191,983.166016 535.414066,983.434568 534.789062,983.97168 C534.164059,984.499026 533.851562,985.163082 533.851562,985.963867 C533.851562,987.067388 534.671867,987.956051 536.3125,988.629883 L538.568359,989.552734 C540.404306,990.294926 541.747066,991.200678 542.59668,992.27002 C543.446293,993.339361 543.871094,994.650383 543.871094,996.203125 C543.871094,998.283214 543.177741,1000.00195 541.791016,1001.35938 C540.394524,1002.72657 538.661143,1003.41016 536.59082,1003.41016 C534.62792,1003.41016 533.006842,1002.82911 531.727539,1001.66699 C530.467767,1000.50488 529.681642,998.869151 529.369141,996.759766 L532.826172,995.998047 C532.982423,997.326179 533.255857,998.244138 533.646484,998.751953 C534.349613,999.728521 535.374993,1000.2168 536.722656,1000.2168 C537.787115,1000.2168 538.670895,999.860355 539.374023,999.147461 C540.077152,998.434567 540.428711,997.531255 540.428711,996.4375 C540.428711,995.998045 540.367676,995.595217 540.245605,995.229004 C540.123535,994.862791 539.933107,994.52588 539.674316,994.218262 C539.415526,993.910643 539.081057,993.62256 538.670898,993.354004 C538.26074,993.085448 537.772464,992.829103 537.206055,992.584961 L535.023438,991.676758 C531.927719,990.368158 530.379883,988.454114 530.379883,985.93457 C530.379883,984.235343 531.02929,982.814459 532.328125,981.671875 C533.62696,980.519525 535.243154,979.943359 537.176758,979.943359 C539.784193,979.943359 541.820305,981.212878 543.285156,983.751953 Z M564.071289,980.382812 L570.326172,996.056641 L576.668945,980.382812 L580.404297,980.382812 L570.25293,1004.69922 L560.335938,980.382812 L564.071289,980.382812 Z M601.629883,980.382812 L601.629883,1003 L598.216797,1003 L598.216797,980.382812 L601.629883,980.382812 Z M625.477539,980.382812 L625.477539,999.791992 L632.12793,999.791992 L632.12793,1003 L622.064453,1003 L622.064453,980.382812 L625.477539,980.382812 Z M653.77832,980.382812 L653.77832,999.791992 L660.428711,999.791992 L660.428711,1003 L650.365234,1003 L650.365234,980.382812 L653.77832,980.382812 Z M691.146484,983.59082 L682.079102,983.59082 L682.079102,989.025391 L690.882812,989.025391 L690.882812,992.233398 L682.079102,992.233398 L682.079102,999.791992 L691.146484,999.791992 L691.146484,1003 L678.666016,1003 L678.666016,980.382812 L691.146484,980.382812 L691.146484,983.59082 Z M741.126953,983.59082 L741.126953,1003 L737.713867,1003 L737.713867,983.59082 L732.513672,983.59082 L732.513672,980.382812 L746.3125,980.382812 L746.3125,983.59082 L741.126953,983.59082 Z M776.839844,983.59082 L767.772461,983.59082 L767.772461,989.025391 L776.576172,989.025391 L776.576172,992.233398 L767.772461,992.233398 L767.772461,999.791992 L776.839844,999.791992 L776.839844,1003 L764.359375,1003 L764.359375,980.382812 L776.839844,980.382812 L776.839844,983.59082 Z M813.036133,981.598633 L813.036133,985.641602 C811.063467,983.991203 809.022471,983.166016 806.913086,983.166016 C804.588856,983.166016 802.630867,984.000968 801.039062,985.670898 C799.437492,987.331063 798.636719,989.362293 798.636719,991.764648 C798.636719,994.137707 799.437492,996.13964 801.039062,997.770508 C802.640633,999.401375 804.603504,1000.2168 806.927734,1000.2168 C808.128912,1000.2168 809.14941,1000.02149 809.989258,999.630859 C810.45801,999.435546 810.943845,999.171877 811.446777,998.839844 C811.94971,998.507811 812.479489,998.107424 813.036133,997.638672 L813.036133,1001.75488 C811.082998,1002.8584 809.032237,1003.41016 806.883789,1003.41016 C803.651351,1003.41016 800.89259,1002.28224 798.607422,1000.02637 C796.33202,997.750965 795.194336,995.006852 795.194336,991.793945 C795.194336,988.913072 796.146475,986.344738 798.050781,984.088867 C800.394543,981.325181 803.426739,979.943359 807.147461,979.943359 C809.178721,979.943359 811.141592,980.495112 813.036133,981.598633 Z M836.385742,989.230469 L846.141602,989.230469 L846.141602,980.382812 L849.554688,980.382812 L849.554688,1003 L846.141602,1003 L846.141602,992.438477 L836.385742,992.438477 L836.385742,1003 L832.972656,1003 L832.972656,980.382812 L836.385742,980.382812 L836.385742,989.230469 Z M907.518555,997.506836 L897.835938,997.506836 L895.316406,1003 L891.639648,1003 L902.831055,978.961914 L913.626953,1003 L909.891602,1003 L907.518555,997.506836 Z M906.126953,994.298828 L902.772461,986.608398 L899.256836,994.298828 L906.126953,994.298828 Z M944.242188,983.751953 L941.473633,985.392578 C940.956052,984.494136 940.462893,983.908204 939.994141,983.634766 C939.505857,983.322264 938.87598,983.166016 938.104492,983.166016 C937.157222,983.166016 936.371097,983.434568 935.746094,983.97168 C935.121091,984.499026 934.808594,985.163082 934.808594,985.963867 C934.808594,987.067388 935.628898,987.956051 937.269531,988.629883 L939.525391,989.552734 C941.361337,990.294926 942.704097,991.200678 943.553711,992.27002 C944.403325,993.339361 944.828125,994.650383 944.828125,996.203125 C944.828125,998.283214 944.134773,1000.00195 942.748047,1001.35938 C941.351556,1002.72657 939.618174,1003.41016 937.547852,1003.41016 C935.584951,1003.41016 933.963874,1002.82911 932.68457,1001.66699 C931.424798,1000.50488 930.638673,998.869151 930.326172,996.759766 L933.783203,995.998047 C933.939454,997.326179 934.212889,998.244138 934.603516,998.751953 C935.306644,999.728521 936.332025,1000.2168 937.679688,1000.2168 C938.744146,1000.2168 939.627926,999.860355 940.331055,999.147461 C941.034183,998.434567 941.385742,997.531255 941.385742,996.4375 C941.385742,995.998045 941.324708,995.595217 941.202637,995.229004 C941.080566,994.862791 940.890138,994.52588 940.631348,994.218262 C940.372557,993.910643 940.038088,993.62256 939.62793,993.354004 C939.217771,993.085448 938.729495,992.829103 938.163086,992.584961 L935.980469,991.676758 C932.88475,990.368158 931.336914,988.454114 931.336914,985.93457 C931.336914,984.235343 931.986322,982.814459 933.285156,981.671875 C934.583991,980.519525 936.200186,979.943359 938.133789,979.943359 C940.741224,979.943359 942.777336,981.212878 944.242188,983.751953 Z M976.732422,983.751953 L973.963867,985.392578 C973.446286,984.494136 972.953127,983.908204 972.484375,983.634766 C971.996091,983.322264 971.366215,983.166016 970.594727,983.166016 C969.647456,983.166016 968.861331,983.434568 968.236328,983.97168 C967.611325,984.499026 967.298828,985.163082 967.298828,985.963867 C967.298828,987.067388 968.119132,987.956051 969.759766,988.629883 L972.015625,989.552734 C973.851572,990.294926 975.194332,991.200678 976.043945,992.27002 C976.893559,993.339361 977.318359,994.650383 977.318359,996.203125 C977.318359,998.283214 976.625007,1000.00195 975.238281,1001.35938 C973.84179,1002.72657 972.108409,1003.41016 970.038086,1003.41016 C968.075185,1003.41016 966.454108,1002.82911 965.174805,1001.66699 C963.915033,1000.50488 963.128908,998.869151 962.816406,996.759766 L966.273438,995.998047 C966.429688,997.326179 966.703123,998.244138 967.09375,998.751953 C967.796879,999.728521 968.822259,1000.2168 970.169922,1000.2168 C971.23438,1000.2168 972.118161,999.860355 972.821289,999.147461 C973.524418,998.434567 973.875977,997.531255 973.875977,996.4375 C973.875977,995.998045 973.814942,995.595217 973.692871,995.229004 C973.5708,994.862791 973.380372,994.52588 973.121582,994.218262 C972.862792,993.910643 972.528322,993.62256 972.118164,993.354004 C971.708006,993.085448 971.219729,992.829103 970.65332,992.584961 L968.470703,991.676758 C965.374985,990.368158 963.827148,988.454114 963.827148,985.93457 C963.827148,984.235343 964.476556,982.814459 965.775391,981.671875 C967.074225,980.519525 968.69042,979.943359 970.624023,979.943359 C973.231458,979.943359 975.267571,981.212878 976.732422,983.751953 Z M995.306641,991.588867 C995.306641,988.405258 996.473621,985.67091 998.807617,983.385742 C1001.13185,981.100575 1003.92479,979.958008 1007.18652,979.958008 C1010.4092,979.958008 1013.17284,981.11034 1015.47754,983.415039 C1017.792,985.719738 1018.94922,988.488265 1018.94922,991.720703 C1018.94922,994.972673 1017.78712,997.731434 1015.46289,999.99707 C1013.12889,1002.27247 1010.31154,1003.41016 1007.01074,1003.41016 C1004.09081,1003.41016 1001.46876,1002.39942 999.144531,1000.37793 C996.585925,998.14159 995.306641,995.211932 995.306641,991.588867 Z M998.749023,991.632812 C998.749023,994.132825 999.588859,996.188469 1001.26855,997.799805 C1002.93848,999.411141 1004.86718,1000.2168 1007.05469,1000.2168 C1009.42775,1000.2168 1011.42968,999.396493 1013.06055,997.755859 C1014.69141,996.095695 1015.50684,994.074231 1015.50684,991.691406 C1015.50684,989.279285 1014.70118,987.257821 1013.08984,985.626953 C1011.48827,983.98632 1009.50587,983.166016 1007.14258,983.166016 C1004.78905,983.166016 1002.80177,983.98632 1001.18066,985.626953 C999.559562,987.248055 998.749023,989.249988 998.749023,991.632812 Z M1054.95508,981.598633 L1054.95508,985.641602 C1052.98241,983.991203 1050.94142,983.166016 1048.83203,983.166016 C1046.5078,983.166016 1044.54981,984.000968 1042.95801,985.670898 C1041.35644,987.331063 1040.55566,989.362293 1040.55566,991.764648 C1040.55566,994.137707 1041.35644,996.13964 1042.95801,997.770508 C1044.55958,999.401375 1046.52245,1000.2168 1048.84668,1000.2168 C1050.04786,1000.2168 1051.06836,1000.02149 1051.9082,999.630859 C1052.37696,999.435546 1052.86279,999.171877 1053.36572,998.839844 C1053.86865,998.507811 1054.39843,998.107424 1054.95508,997.638672 L1054.95508,1001.75488 C1053.00194,1002.8584 1050.95118,1003.41016 1048.80273,1003.41016 C1045.5703,1003.41016 1042.81153,1002.28224 1040.52637,1000.02637 C1038.25097,997.750965 1037.11328,995.006852 1037.11328,991.793945 C1037.11328,988.913072 1038.06542,986.344738 1039.96973,984.088867 C1042.31349,981.325181 1045.34568,979.943359 1049.06641,979.943359 C1051.09767,979.943359 1053.06054,980.495112 1054.95508,981.598633 Z M1077.6748,980.382812 L1077.6748,1003 L1074.26172,1003 L1074.26172,980.382812 L1077.6748,980.382812 Z M1111.39551,997.506836 L1101.71289,997.506836 L1099.19336,1003 L1095.5166,1003 L1106.70801,978.961914 L1117.50391,1003 L1113.76855,1003 L1111.39551,997.506836 Z M1110.00391,994.298828 L1106.64941,986.608398 L1103.13379,994.298828 L1110.00391,994.298828 Z M1140.31152,983.59082 L1140.31152,1003 L1136.89844,1003 L1136.89844,983.59082 L1131.69824,983.59082 L1131.69824,980.382812 L1145.49707,980.382812 L1145.49707,983.59082 L1140.31152,983.59082 Z M1166.95703,980.382812 L1166.95703,1003 L1163.54395,1003 L1163.54395,980.382812 L1166.95703,980.382812 Z M1186.26367,991.588867 C1186.26367,988.405258 1187.43065,985.67091 1189.76465,983.385742 C1192.08888,981.100575 1194.88182,979.958008 1198.14355,979.958008 C1201.36623,979.958008 1204.12987,981.11034 1206.43457,983.415039 C1208.74904,985.719738 1209.90625,988.488265 1209.90625,991.720703 C1209.90625,994.972673 1208.74415,997.731434 1206.41992,999.99707 C1204.08593,1002.27247 1201.26857,1003.41016 1197.96777,1003.41016 C1195.04784,1003.41016 1192.42579,1002.39942 1190.10156,1000.37793 C1187.54296,998.14159 1186.26367,995.211932 1186.26367,991.588867 Z M1189.70605,991.632812 C1189.70605,994.132825 1190.54589,996.188469 1192.22559,997.799805 C1193.89552,999.411141 1195.82421,1000.2168 1198.01172,1000.2168 C1200.38478,1000.2168 1202.38671,999.396493 1204.01758,997.755859 C1205.64845,996.095695 1206.46387,994.074231 1206.46387,991.691406 C1206.46387,989.279285 1205.65821,987.257821 1204.04688,985.626953 C1202.4453,983.98632 1200.4629,983.166016 1198.09961,983.166016 C1195.74608,983.166016 1193.7588,983.98632 1192.1377,985.626953 C1190.51659,987.248055 1189.70605,989.249988 1189.70605,991.632812 Z M1229.19824,1003 L1229.19824,978.844727 L1245.69238,996.100586 L1245.69238,980.382812 L1249.10547,980.382812 L1249.10547,1004.37695 L1232.61133,987.165039 L1232.61133,1003 L1229.19824,1003 Z"/>
  </g>
</svg>
